<svg width="16" height="16" viewBox="0 0 16 16" fill="none" xmlns="http://www.w3.org/2000/svg">
<path d="M12.0206 11.0779L14.8758 13.933L13.933 14.8758L11.0778 12.0207C10.0512 12.842 8.74931 13.3334 7.33331 13.3334C4.02131 13.3334 1.33331 10.6454 1.33331 7.33337C1.33331 4.02137 4.02131 1.33337 7.33331 1.33337C10.6453 1.33337 13.3333 4.02137 13.3333 7.33337C13.3333 8.74937 12.842 10.0513 12.0206 11.0779ZM10.6831 10.5832C11.4983 9.74311 12 8.59711 12 7.33337C12 4.75504 9.91165 2.66671 7.33331 2.66671C4.75498 2.66671 2.66665 4.75504 2.66665 7.33337C2.66665 9.91171 4.75498 12 7.33331 12C8.59705 12 9.74305 11.4984 10.5832 10.6832L10.6831 10.5832Z" fill="#8A909A"/>
</svg>
