<svg width="20" height="21" viewBox="0 0 20 21" fill="none" xmlns="http://www.w3.org/2000/svg">
<path d="M12.8804 8.11235L12.762 7.99397C12.2217 7.47312 11.5457 7.0779 10.7696 6.86992C8.34733 6.22088 6.02117 7.59377 5.35987 10.0617C5.32417 10.195 5.30478 10.3446 5.27375 10.7207C5.14519 12.2792 4.77874 13.4412 3.77383 14.62C5.65706 15.3604 7.8881 15.882 9.58467 15.882C11.6418 15.882 13.4703 14.4993 14.0105 12.4833C14.4422 10.8722 13.9594 9.23157 12.8804 8.11235ZM11.0738 5.22733L15.1898 2.02601C15.5216 1.76799 15.9935 1.79737 16.2907 2.09455L18.7858 4.58972C19.0831 4.88689 19.1124 5.35884 18.8544 5.69058L15.6539 9.80549C15.8982 10.7957 15.903 11.8599 15.6203 12.9147C14.8719 15.7079 12.3452 17.5487 9.58467 17.5487C6.66667 17.5487 2.91667 16.2971 0.833332 15.0471C4.14982 12.5471 3.37268 11.0386 3.75 9.63041C4.63202 6.33864 7.7852 4.41595 11.0738 5.22733ZM13.9179 6.79283C13.9727 6.84571 14.0266 6.89952 14.0793 6.95427L15.0247 7.89969L17.0872 5.24804L15.6324 3.79324L12.9807 5.85564L13.9179 6.79283Z" fill="#A1A8B3"/>
</svg>
