<svg width="20" height="20" viewBox="0 0 20 20" fill="none" xmlns="http://www.w3.org/2000/svg">
<path d="M7.08333 5.83333C7.08333 6.75381 6.33714 7.5 5.41667 7.5C4.49619 7.5 3.75 6.75381 3.75 5.83333C3.75 4.91286 4.49619 4.16667 5.41667 4.16667C6.33714 4.16667 7.08333 4.91286 7.08333 5.83333ZM2.08333 5.83333C2.08333 7.67428 3.57572 9.16667 5.41667 9.16667C7.25762 9.16667 8.75 7.67428 8.75 5.83333C8.75 3.99238 7.25762 2.5 5.41667 2.5C3.57572 2.5 2.08333 3.99238 2.08333 5.83333ZM7.5 13.75C7.5 12.5994 6.56726 11.6667 5.41667 11.6667C4.26608 11.6667 3.33333 12.5994 3.33333 13.75V15.8333H7.5V13.75ZM9.16667 17.5H1.66667V13.75C1.66667 11.6789 3.3456 10 5.41667 10C7.48773 10 9.16667 11.6789 9.16667 13.75V17.5ZM16.25 5.83333C16.25 6.75381 15.5038 7.5 14.5833 7.5C13.6628 7.5 12.9167 6.75381 12.9167 5.83333C12.9167 4.91286 13.6628 4.16667 14.5833 4.16667C15.5038 4.16667 16.25 4.91286 16.25 5.83333ZM11.25 5.83333C11.25 7.67428 12.7424 9.16667 14.5833 9.16667C16.4243 9.16667 17.9167 7.67428 17.9167 5.83333C17.9167 3.99238 16.4243 2.5 14.5833 2.5C12.7424 2.5 11.25 3.99238 11.25 5.83333ZM16.6667 13.75C16.6667 12.5994 15.7339 11.6667 14.5833 11.6667C13.4328 11.6667 12.5 12.5994 12.5 13.75V15.8333H16.6667V13.75ZM10.8333 15.8333V13.75C10.8333 11.6789 12.5123 10 14.5833 10C16.6544 10 18.3333 11.6789 18.3333 13.75V17.5H10.8333V15.8333Z" fill="#A1A8B3"/>
</svg>
