<svg width="20" height="20" viewBox="0 0 20 20" fill="none" xmlns="http://www.w3.org/2000/svg">
<path d="M10.8333 17.5V19.1667H9.16667V17.5H2.5C2.03977 17.5 1.66667 17.1269 1.66667 16.6667V3.33333C1.66667 2.8731 2.03977 2.5 2.5 2.5H7.5C8.49558 2.5 9.38925 2.93646 10 3.62848C10.6108 2.93646 11.5044 2.5 12.5 2.5H17.5C17.9603 2.5 18.3333 2.8731 18.3333 3.33333V16.6667C18.3333 17.1269 17.9603 17.5 17.5 17.5H10.8333ZM16.6667 15.8333V4.16667H12.5C11.5795 4.16667 10.8333 4.91286 10.8333 5.83333V15.8333H16.6667ZM9.16667 15.8333V5.83333C9.16667 4.91286 8.4205 4.16667 7.5 4.16667H3.33333V15.8333H9.16667Z" fill="#A1A8B3"/>
</svg>
