<svg width="20" height="20" viewBox="0 0 20 20" fill="none" xmlns="http://www.w3.org/2000/svg">
<path d="M2.49317 17.5C2.03671 17.5 1.66667 17.1292 1.66667 16.6722V3.32783C1.66667 2.87063 2.04609 2.5 2.49317 2.5H17.5068C17.9633 2.5 18.3333 2.87079 18.3333 3.32783V16.6722C18.3333 17.1293 17.9539 17.5 17.5068 17.5H2.49317ZM16.6667 12.5V4.16667H3.33333V15.8333L11.6667 7.5L16.6667 12.5ZM16.6667 14.857L11.6667 9.857L5.69036 15.8333H16.6667V14.857ZM6.66667 9.16667C5.74619 9.16667 5 8.4205 5 7.5C5 6.57952 5.74619 5.83333 6.66667 5.83333C7.58714 5.83333 8.33333 6.57952 8.33333 7.5C8.33333 8.4205 7.58714 9.16667 6.66667 9.16667Z" fill="#A1A8B3"/>
</svg>
