<svg width="20" height="21" viewBox="0 0 20 21" fill="none" xmlns="http://www.w3.org/2000/svg">
<path d="M5.14226 15.0498C5.48545 14.0788 6.41148 13.3831 7.5 13.3831C8.5885 13.3831 9.51459 14.0788 9.85775 15.0498H18.3333V16.7164H9.85775C9.51459 17.6874 8.5885 18.3831 7.5 18.3831C6.41148 18.3831 5.48545 17.6874 5.14226 16.7164H1.66667V15.0498H5.14226ZM10.1423 9.21643C10.4854 8.24544 11.4115 7.54976 12.5 7.54976C13.5885 7.54976 14.5146 8.24544 14.8578 9.21643H18.3333V10.8831H14.8578C14.5146 11.8541 13.5885 12.5498 12.5 12.5498C11.4115 12.5498 10.4854 11.8541 10.1423 10.8831H1.66667V9.21643H10.1423ZM5.14226 3.3831C5.48545 2.41211 6.41148 1.71643 7.5 1.71643C8.5885 1.71643 9.51459 2.41211 9.85775 3.3831H18.3333V5.04976H9.85775C9.51459 6.02076 8.5885 6.71643 7.5 6.71643C6.41148 6.71643 5.48545 6.02076 5.14226 5.04976H1.66667V3.3831H5.14226ZM7.5 5.04976C7.96024 5.04976 8.33333 4.67666 8.33333 4.21643C8.33333 3.7562 7.96024 3.3831 7.5 3.3831C7.03977 3.3831 6.66667 3.7562 6.66667 4.21643C6.66667 4.67666 7.03977 5.04976 7.5 5.04976ZM12.5 10.8831C12.9603 10.8831 13.3333 10.51 13.3333 10.0498C13.3333 9.58951 12.9603 9.21643 12.5 9.21643C12.0398 9.21643 11.6667 9.58951 11.6667 10.0498C11.6667 10.51 12.0398 10.8831 12.5 10.8831ZM7.5 16.7164C7.96024 16.7164 8.33333 16.3433 8.33333 15.8831C8.33333 15.4228 7.96024 15.0498 7.5 15.0498C7.03977 15.0498 6.66667 15.4228 6.66667 15.8831C6.66667 16.3433 7.03977 16.7164 7.5 16.7164Z" fill="#A1A8B3"/>
</svg>
