<svg width="20" height="20" viewBox="0 0 20 20" fill="none" xmlns="http://www.w3.org/2000/svg">
<path d="M10.3452 4.16667H17.5C17.9603 4.16667 18.3333 4.53977 18.3333 5V16.6667C18.3333 17.1269 17.9603 17.5 17.5 17.5H2.5C2.03977 17.5 1.66667 17.1269 1.66667 16.6667V3.33333C1.66667 2.8731 2.03977 2.5 2.5 2.5H8.6785L10.3452 4.16667ZM3.33333 4.16667V15.8333H16.6667V5.83333H9.65484L7.98816 4.16667H3.33333ZM6.66667 15C6.66667 13.1591 8.15905 11.6667 10 11.6667C11.8409 11.6667 13.3333 13.1591 13.3333 15H6.66667ZM10 10.8333C8.84942 10.8333 7.91667 9.90058 7.91667 8.75C7.91667 7.59941 8.84942 6.66667 10 6.66667C11.1506 6.66667 12.0833 7.59941 12.0833 8.75C12.0833 9.90058 11.1506 10.8333 10 10.8333Z" fill="#A1A8B3"/>
</svg>
