<svg width="20" height="21" viewBox="0 0 20 21" fill="none" xmlns="http://www.w3.org/2000/svg">
<g clip-path="url(#clip0_5_2904)">
<path d="M10 11.7165V13.3832C7.23857 13.3832 5 15.6218 5 18.3832H3.33333C3.33333 14.7013 6.3181 11.7165 10 11.7165ZM10 10.8832C7.2375 10.8832 5 8.64568 5 5.88318C5 3.12068 7.2375 0.883179 10 0.883179C12.7625 0.883179 15 3.12068 15 5.88318C15 8.64568 12.7625 10.8832 10 10.8832ZM10 9.21651C11.8417 9.21651 13.3333 7.72485 13.3333 5.88318C13.3333 4.04151 11.8417 2.54985 10 2.54985C8.15833 2.54985 6.66667 4.04151 6.66667 5.88318C6.66667 7.72485 8.15833 9.21651 10 9.21651ZM12.1622 15.7261C12.1106 15.5091 12.0833 15.2827 12.0833 15.0498C12.0833 14.8171 12.1106 14.5907 12.1621 14.3737L11.3357 13.8966L12.1691 12.4532L12.996 12.9306C13.3236 12.6208 13.723 12.386 14.1667 12.2539V11.2998H15.8333V12.2539C16.277 12.386 16.6763 12.6208 17.0039 12.9306L17.8309 12.4531L18.6643 13.8965L17.8379 14.3736C17.8894 14.5907 17.9167 14.8171 17.9167 15.0498C17.9167 15.2826 17.8894 15.509 17.8379 15.726L18.6643 16.2031L17.831 17.6465L17.004 17.169C16.6764 17.4789 16.2771 17.7137 15.8334 17.8457V18.7998H14.1667V17.8458C13.7231 17.7138 13.3237 17.479 12.9961 17.1691L12.1692 17.6466L11.3357 16.2032L12.1622 15.7261ZM15 16.2998C15.6903 16.2998 16.25 15.7402 16.25 15.0498C16.25 14.3595 15.6903 13.7998 15 13.7998C14.3097 13.7998 13.75 14.3595 13.75 15.0498C13.75 15.7402 14.3097 16.2998 15 16.2998Z" fill="#A1A8B3"/>
</g>
<defs>
<clipPath id="clip0_5_2904">
<rect width="20" height="20" fill="white" transform="translate(0 0.0498047)"/>
</clipPath>
</defs>
</svg>
